<?xml version="1.0" encoding="UTF-8"?>
<svg version="1.1" xmlns="http://www.w3.org/2000/svg" width="28" height="28">
<path d="M0 0 C9.24 0 18.48 0 28 0 C28 9.24 28 18.48 28 28 C18.76 28 9.52 28 0 28 C0 18.76 0 9.52 0 0 Z " fill="#DF3639" transform="translate(0,0)"/>
<path d="M0 0 C1.15628906 0.00515625 2.31257812 0.0103125 3.50390625 0.015625 C4.65761719 0.01046875 5.81132812 0.0053125 7 0 C10.06640625 0.265625 10.06640625 0.265625 13.06640625 2.265625 C13.25390625 5.390625 13.25390625 5.390625 13.06640625 8.265625 C11.10991228 9.10326768 9.15115069 9.93561559 7.19140625 10.765625 C6.10085937 11.2296875 5.0103125 11.69375 3.88671875 12.171875 C1.06640625 13.265625 1.06640625 13.265625 -0.93359375 13.265625 C-0.60359375 14.255625 -0.27359375 15.245625 0.06640625 16.265625 C6.00640625 16.595625 11.94640625 16.925625 18.06640625 17.265625 C18.06640625 18.255625 18.06640625 19.245625 18.06640625 20.265625 C14.60814283 20.32351506 11.15000332 20.35918321 7.69140625 20.390625 C6.7065625 20.40738281 5.72171875 20.42414062 4.70703125 20.44140625 C3.76601562 20.44785156 2.825 20.45429688 1.85546875 20.4609375 C0.55150146 20.47664795 0.55150146 20.47664795 -0.77880859 20.49267578 C-2.93359375 20.265625 -2.93359375 20.265625 -4.93359375 18.265625 C-5.13211477 15.55639699 -5.21198852 12.97259321 -5.18359375 10.265625 C-5.19132813 9.52828125 -5.1990625 8.7909375 -5.20703125 8.03125 C-5.17943171 0.46897651 -5.17943171 0.46897651 0 0 Z " fill="#FDF3F3" transform="translate(9.93359375,3.734375)"/>
<path d="M0 0 C3.3 0 6.6 0 10 0 C10 0.66 10 1.32 10 2 C3.375 5 3.375 5 0 5 C0 3.35 0 1.7 0 0 Z " fill="#E02A2E" transform="translate(9,8)"/>
</svg>
