<?xml version="1.0" standalone="no"?>
<!DOCTYPE svg PUBLIC "-//W3C//DTD SVG 20010904//EN"
 "http://www.w3.org/TR/2001/REC-SVG-20010904/DTD/svg10.dtd">
<svg version="1.0" xmlns="http://www.w3.org/2000/svg"
viewBox="0 0 400.000000 400.000000"
 preserveAspectRatio="xMidYMid meet">

<g transform="translate(0.000000,400.000000) scale(0.100000,-0.100000)" stroke="#ffffff">
<path d="M0 2000 l0 -2000 2000 0 2000 0 0 2000 0 2000 -2000 0 -2000 0 0
-2000z m3022 921 c424 -86 744 -411 823 -837 21 -111 16 -348 -9 -436 -55
-199 -206 -379 -391 -468 -167 -81 -60 -75 -1435 -75 -1165 0 -1228 1 -1295
19 -262 70 -455 256 -537 516 -20 67 -23 94 -23 250 1 147 4 188 23 258 104
397 421 697 820 776 53 11 267 14 999 15 877 1 936 0 1025 -18z" fill="#CE1437"/>
<path d="M995 2790 c-176 -40 -337 -131 -461 -262 -85 -90 -138 -168 -179
-267 -61 -147 -70 -191 -70 -371 0 -146 3 -172 23 -231 65 -190 221 -342 408
-400 l79 -24 1215 0 1215 0 82 28 c124 43 227 118 311 227 36 46 82 149 98
217 23 97 14 330 -15 431 -48 164 -127 296 -249 414 -127 123 -270 201 -440
238 -83 19 -133 20 -1012 19 -856 -1 -931 -2 -1005 -19z m221 -461 c74 -13
131 -46 182 -105 55 -62 76 -127 70 -218 -8 -116 -65 -203 -166 -253 -77 -38
-192 -40 -264 -5 -191 94 -237 344 -89 492 51 50 99 77 164 89 23 5 42 9 43
10 0 1 27 -4 60 -10z m1740 -26 c70 -24 154 -110 177 -182 49 -154 -20 -319
-161 -384 -70 -32 -189 -31 -257 3 -232 114 -232 442 0 552 71 33 163 38 241
11z" fill="#CE1437"/>
<path d="M1134 2200 c-51 -11 -98 -46 -122 -88 -72 -129 46 -285 194 -258 41
8 106 64 124 106 18 44 8 130 -19 169 -37 52 -118 85 -177 71z" fill="#CE1437"/>
<path d="M2758 2170 c-93 -50 -117 -191 -45 -268 87 -94 231 -74 290 39 40 75
0 196 -76 232 -47 23 -123 21 -169 -3z" fill="#CE1437"/>
</g>
</svg>
