<?xml version="1.0" encoding="UTF-8"?>
<svg version="1.1" xmlns="http://www.w3.org/2000/svg" width="28" height="28">
<path d="M0 0 C9.24 0 18.48 0 28 0 C28 9.24 28 18.48 28 28 C18.76 28 9.52 28 0 28 C0 18.76 0 9.52 0 0 Z " fill="#CE1537" transform="translate(0,0)"/>
<path d="M0 0 C0.99 0 1.98 0 3 0 C3.66 0.99 4.32 1.98 5 3 C7.02887311 3.41480107 7.02887311 3.41480107 9.3515625 3.29296875 C10.62773437 3.2784668 10.62773437 3.2784668 11.9296875 3.26367188 C13.26386719 3.2259668 13.26386719 3.2259668 14.625 3.1875 C15.5221875 3.17396484 16.419375 3.16042969 17.34375 3.14648438 C19.56309789 3.11106925 21.78125188 3.06168461 24 3 C24 2.34 24 1.68 24 1 C24.99 0.67 25.98 0.34 27 0 C28 2 28 2 28 12 C18.76 12 9.52 12 0 12 C0 8.04 0 4.08 0 0 Z " fill="#CE1537" transform="translate(0,16)"/>
<path d="M0 0 C1.8253125 -0.01546875 1.8253125 -0.01546875 3.6875 -0.03125 C7 0.5 7 0.5 9.4453125 2.30078125 C11 4.5 11 4.5 10.875 8.1875 C10.58625 9.280625 10.2975 10.37375 10 11.5 C6.71646451 13.14176774 3.10480362 12.68454039 -0.5 12.6875 C-1.28503906 12.69974609 -2.07007813 12.71199219 -2.87890625 12.72460938 C-4.92063726 12.72986254 -6.96192251 12.6222018 -9 12.5 C-11 10.5 -11 10.5 -11.375 7.625 C-11 4.5 -11 4.5 -9.4140625 2.3359375 C-6.1713907 -0.13017212 -4.03802617 -0.03422056 0 0 Z " fill="#D75068" transform="translate(14,7.5)"/>
<path d="M0 0 C1.66611905 -0.042721 3.33382885 -0.04063832 5 0 C6 1 6 1 6.125 3.5 C6 6 6 6 5 7 C2.46950598 7.07313567 -0.03304837 7.09247527 -2.5625 7.0625 C-3.27341797 7.05798828 -3.98433594 7.05347656 -4.71679688 7.04882812 C-6.47790013 7.03700864 -8.23896036 7.01907263 -10 7 C-10 6.67 -10 6.34 -10 6 C-5.38 6 -0.76 6 4 6 C3.4260261 1.79819816 3.4260261 1.79819816 0 0 Z " fill="#CD0B34" transform="translate(17,11)"/>
</svg>
