<?xml version="1.0" encoding="utf-8"?><!-- Uploaded to: SVG Repo, www.svgrepo.com, Generator: SVG Repo Mixer Tools -->
<svg version="1.1" id="Uploaded to svgrepo.com" xmlns="http://www.w3.org/2000/svg" xmlns:xlink="http://www.w3.org/1999/xlink" 
	  viewBox="0 0 32 32" xml:space="preserve">
<path class="stone_een" d="M24,2H8C6.346,2,5,3.346,5,5v22c0,1.654,1.346,3,3,3h16c1.654,0,3-1.346,3-3V5C27,3.346,25.654,2,24,2z
	 M8,4h16c0.552,0,1,0.448,1,1v7h-7v-1c0-0.552-0.448-1-1-1h-5c-0.552,0-1,0.448-1,1v1H7V5C7,4.448,7.448,4,8,4z M24,28h-1v-2
	c0-0.552-0.448-1-1-1H10c-0.552,0-1,0.448-1,1v2H8c-0.552,0-1-0.448-1-1V13h4v1c0,0.552,0.448,1,1,1h0.9l1.21,1.512
	c0.1,0.125,0.245,0.188,0.39,0.188c0.145,0,0.29-0.063,0.39-0.188L16.1,15H17c0.552,0,1-0.448,1-1v-1h7v14
	C25,27.552,24.552,28,24,28z M13,22.5c0,0.276,0.224,0.5,0.5,0.5h6c0.276,0,0.5,0.224,0.5,0.5S19.776,24,19.5,24h-6
	c-0.827,0-1.5-0.673-1.5-1.5s0.673-1.5,1.5-1.5h5c0.276,0,0.5-0.224,0.5-0.5S18.776,20,18.5,20H15c-0.551,0-1-0.449-1-1v-0.5
	c0-0.276,0.224-0.5,0.5-0.5s0.5,0.224,0.5,0.5V19h3.5c0.827,0,1.5,0.673,1.5,1.5S19.327,22,18.5,22h-5C13.224,22,13,22.224,13,22.5z
	" fill="currentColor" stroke="currentColor"/>
</svg>