<?xml version="1.0" encoding="iso-8859-1"?>
<!-- Uploaded to: SVG Repo, www.svgrepo.com, Generator: SVG Repo Mixer Tools -->
<svg fill="currentColor" stroke="currentColor"  version="1.1" id="Layer_1" xmlns="http://www.w3.org/2000/svg" xmlns:xlink="http://www.w3.org/1999/xlink" 
	 viewBox="0 0 306.833 306.833" xml:space="preserve">
<g id="XMLID_1317_">
	<g>
		<path d="M270.003,286.833v-54.144h-79.905v54.144h-76.283L95.487,170.359c5.813-7.582,9.279-17.053,9.279-27.323
			c0-0.748-0.02-1.491-0.057-2.229l77.404-80.006h18.771c-1.815,4.013-2.835,8.459-2.835,13.142c0,14.152,9.239,26.181,22,30.391
			v27.473h-8.663l-0.768,31.698l-34.104,22.839l22.054,31.177l16.328-11.551l-10.204-14.425l25.357-16.981l25.358,16.981
			l-10.205,14.425l16.328,11.551l22.055-31.177l-34.104-22.839l-0.768-31.698h-8.664v-27.473c12.761-4.21,22-16.239,22-30.391
			c0-4.683-1.02-9.129-2.835-13.142h25.051V0H145.664L35.349,105.265c-12.375,8.027-20.584,21.954-20.584,37.771
			c0,10.271,3.466,19.742,9.279,27.323L2.568,306.833h57.196h57.196h187.304v-20H270.003z M230.049,85.942c-6.617,0-12-5.383-12-12
			s5.383-12,12-12s12,5.383,12,12S236.667,85.942,230.049,85.942z M153.675,20h110.59v20.801h-90.631l-75.732,78.277
			c-6.145-9.818-15.926-16.962-27.357-19.752L153.675,20z M54.458,118.608c0.414-0.089,0.829-0.169,1.246-0.237
			c0.016-0.002,0.031-0.006,0.046-0.008c0.438-0.071,0.876-0.131,1.316-0.179c0.006,0,0.011-0.001,0.017-0.002
			c0.424-0.046,0.848-0.079,1.271-0.104c0.026-0.001,0.051-0.004,0.076-0.006c0.445-0.024,0.89-0.036,1.334-0.036
			c0.694,0,1.379,0.037,2.06,0.092c0.11,0.009,0.222,0.015,0.332,0.025c0.613,0.058,1.218,0.144,1.818,0.244
			c0.186,0.032,0.371,0.064,0.556,0.1c0.533,0.103,1.06,0.223,1.582,0.358c0.268,0.07,0.532,0.147,0.796,0.227
			c0.288,0.085,0.572,0.179,0.855,0.274c0.535,0.181,1.064,0.376,1.582,0.592c0.085,0.036,0.171,0.072,0.256,0.108
			c5.835,2.507,10.528,7.174,13.074,12.989c0.147,0.34,0.29,0.682,0.422,1.03c0.096,0.249,0.188,0.5,0.276,0.753
			c0.193,0.561,0.374,1.128,0.529,1.708c0.013,0.047,0.028,0.094,0.041,0.142c0.185,0.711,0.341,1.436,0.465,2.172
			c0.003,0.018,0.007,0.035,0.01,0.053l0.072,0.426c0.181,1.21,0.276,2.448,0.276,3.708c0,7.699-3.5,14.594-8.99,19.183
			c-0.458,0.383-0.93,0.746-1.412,1.093c-0.122,0.088-0.244,0.175-0.367,0.261c-0.507,0.352-1.025,0.686-1.555,0.998
			c-0.091,0.054-0.183,0.105-0.274,0.158c-0.577,0.33-1.163,0.641-1.762,0.923c-0.023,0.011-0.046,0.021-0.069,0.031
			c-1.94,0.907-3.993,1.56-6.105,1.945c-0.056,0.01-0.112,0.021-0.168,0.03c-0.664,0.116-1.333,0.206-2.007,0.268
			c-0.08,0.007-0.161,0.012-0.241,0.019c-0.68,0.056-1.364,0.091-2.051,0.091s-1.37-0.035-2.051-0.091
			c-0.08-0.007-0.161-0.011-0.241-0.019c-0.674-0.063-1.343-0.152-2.007-0.268c-0.056-0.01-0.112-0.02-0.168-0.03
			c-2.112-0.385-4.165-1.038-6.105-1.945c-0.023-0.011-0.046-0.02-0.069-0.031c-0.6-0.282-1.186-0.594-1.762-0.923
			c-0.091-0.052-0.183-0.104-0.274-0.158c-0.53-0.312-1.048-0.646-1.555-0.998c-0.123-0.085-0.245-0.173-0.367-0.261
			c-0.482-0.347-0.954-0.71-1.412-1.093c-5.49-4.589-8.99-11.484-8.99-19.183C34.765,131.072,43.214,121.049,54.458,118.608z
			 M59.765,286.833H25.961L42.079,184.41c5.432,2.331,11.41,3.626,17.686,3.626s12.253-1.295,17.686-3.626L93.57,286.833H59.765z
			 M250.003,286.833h-39.905v-34.144h39.905V286.833z"/>
	</g>
</g>
</svg>